<mxfile host="Electron" modified="2024-02-04T12:27:53.719Z" agent="Mozilla/5.0 (Windows NT 10.0; Win64; x64) AppleWebKit/537.36 (KHTML, like Gecko) draw.io/22.1.21 Chrome/120.0.6099.109 Electron/28.1.0 Safari/537.36" etag="cQjpbESihDlC91zf82eK" version="22.1.21" type="device">
  <diagram id="6a731a19-8d31-9384-78a2-239565b7b9f0" name="Page-1">
    <mxGraphModel dx="1434" dy="844" grid="0" gridSize="10" guides="1" tooltips="1" connect="1" arrows="1" fold="1" page="1" pageScale="1" pageWidth="827" pageHeight="1169" background="none" math="0" shadow="0">
      <root>
        <mxCell id="0" />
        <mxCell id="1" parent="0" />
        <mxCell id="pzWBwDgQuzdZBZj7DVHq-24" value="" style="shape=mxgraph.cisco.computers_and_peripherals.workstation;sketch=0;html=1;pointerEvents=1;dashed=0;fillColor=#036897;strokeColor=#ffffff;strokeWidth=2;verticalLabelPosition=bottom;verticalAlign=top;align=center;outlineConnect=0;fontStyle=1" parent="1" vertex="1">
          <mxGeometry x="178" y="439.5" width="83" height="62" as="geometry" />
        </mxCell>
        <mxCell id="pzWBwDgQuzdZBZj7DVHq-25" value="" style="shape=mxgraph.cisco.computers_and_peripherals.workstation;sketch=0;html=1;pointerEvents=1;dashed=0;fillColor=#036897;strokeColor=#ffffff;strokeWidth=2;verticalLabelPosition=bottom;verticalAlign=top;align=center;outlineConnect=0;" parent="1" vertex="1">
          <mxGeometry x="580" y="440" width="83" height="62" as="geometry" />
        </mxCell>
        <mxCell id="pzWBwDgQuzdZBZj7DVHq-26" value="" style="shape=mxgraph.cisco.switches.workgroup_switch;sketch=0;html=1;pointerEvents=1;dashed=0;fillColor=#036897;strokeColor=#ffffff;strokeWidth=2;verticalLabelPosition=bottom;verticalAlign=top;align=center;outlineConnect=0;" parent="1" vertex="1">
          <mxGeometry x="290" y="446" width="101" height="50" as="geometry" />
        </mxCell>
        <mxCell id="pzWBwDgQuzdZBZj7DVHq-27" value="" style="shape=mxgraph.cisco.routers.router;sketch=0;html=1;pointerEvents=1;dashed=0;fillColor=#036897;strokeColor=#ffffff;strokeWidth=2;verticalLabelPosition=bottom;verticalAlign=top;align=center;outlineConnect=0;" parent="1" vertex="1">
          <mxGeometry x="456" y="444" width="78" height="53" as="geometry" />
        </mxCell>
        <mxCell id="pzWBwDgQuzdZBZj7DVHq-28" value="PC-A" style="text;strokeColor=none;align=center;fillColor=none;html=1;verticalAlign=middle;whiteSpace=wrap;rounded=0;fontStyle=1" parent="1" vertex="1">
          <mxGeometry x="181" y="446.5" width="60" height="30" as="geometry" />
        </mxCell>
        <mxCell id="pzWBwDgQuzdZBZj7DVHq-29" value="&lt;b&gt;PC-B&lt;/b&gt;" style="text;html=1;align=center;verticalAlign=middle;resizable=0;points=[];autosize=1;strokeColor=none;fillColor=none;" parent="1" vertex="1">
          <mxGeometry x="589" y="448.5" width="47" height="26" as="geometry" />
        </mxCell>
        <mxCell id="pzWBwDgQuzdZBZj7DVHq-30" value="&lt;b&gt;S1&lt;/b&gt;" style="text;html=1;align=center;verticalAlign=middle;resizable=0;points=[];autosize=1;strokeColor=none;fillColor=none;" parent="1" vertex="1">
          <mxGeometry x="313" y="470" width="33" height="26" as="geometry" />
        </mxCell>
        <mxCell id="pzWBwDgQuzdZBZj7DVHq-31" value="&lt;b&gt;R1&lt;/b&gt;" style="text;html=1;align=center;verticalAlign=middle;resizable=0;points=[];autosize=1;strokeColor=none;fillColor=none;" parent="1" vertex="1">
          <mxGeometry x="478.5" y="470" width="33" height="26" as="geometry" />
        </mxCell>
        <mxCell id="pzWBwDgQuzdZBZj7DVHq-34" style="edgeStyle=none;rounded=0;orthogonalLoop=1;jettySize=auto;html=1;exitX=1;exitY=0.5;exitDx=0;exitDy=0;exitPerimeter=0;entryX=0.11;entryY=0.5;entryDx=0;entryDy=0;entryPerimeter=0;labelBackgroundColor=#000000;strokeColor=default;strokeWidth=3;shadow=0;fillColor=#000000;endArrow=none;endFill=0;" parent="1" source="pzWBwDgQuzdZBZj7DVHq-27" target="pzWBwDgQuzdZBZj7DVHq-25" edge="1">
          <mxGeometry relative="1" as="geometry" />
        </mxCell>
        <mxCell id="pzWBwDgQuzdZBZj7DVHq-36" style="edgeStyle=none;rounded=0;orthogonalLoop=1;jettySize=auto;html=1;exitX=0.98;exitY=0.5;exitDx=0;exitDy=0;exitPerimeter=0;entryX=0;entryY=0.5;entryDx=0;entryDy=0;entryPerimeter=0;labelBackgroundColor=#000000;strokeColor=default;strokeWidth=3;shadow=0;fillColor=#000000;endArrow=none;endFill=0;" parent="1" source="pzWBwDgQuzdZBZj7DVHq-26" target="pzWBwDgQuzdZBZj7DVHq-27" edge="1">
          <mxGeometry relative="1" as="geometry">
            <mxPoint x="384" y="487" as="sourcePoint" />
            <mxPoint x="480" y="486" as="targetPoint" />
          </mxGeometry>
        </mxCell>
        <mxCell id="pzWBwDgQuzdZBZj7DVHq-37" style="edgeStyle=none;rounded=0;orthogonalLoop=1;jettySize=auto;html=1;exitX=0.755;exitY=0.5;exitDx=0;exitDy=0;exitPerimeter=0;entryX=0;entryY=0.5;entryDx=0;entryDy=0;entryPerimeter=0;labelBackgroundColor=#000000;strokeColor=default;strokeWidth=3;shadow=0;fillColor=#000000;endArrow=none;endFill=0;" parent="1" source="pzWBwDgQuzdZBZj7DVHq-24" target="pzWBwDgQuzdZBZj7DVHq-26" edge="1">
          <mxGeometry relative="1" as="geometry">
            <mxPoint x="223" y="526" as="sourcePoint" />
            <mxPoint x="320" y="528" as="targetPoint" />
          </mxGeometry>
        </mxCell>
        <mxCell id="pzWBwDgQuzdZBZj7DVHq-38" value="&lt;b style=&quot;font-size: 11px;&quot;&gt;F0/6&lt;/b&gt;" style="text;html=1;align=center;verticalAlign=middle;resizable=0;points=[];autosize=1;strokeColor=none;fillColor=none;fontSize=11;" parent="1" vertex="1">
          <mxGeometry x="257" y="471" width="40" height="25" as="geometry" />
        </mxCell>
        <mxCell id="pzWBwDgQuzdZBZj7DVHq-39" value="&lt;span style=&quot;font-size: 11px;&quot;&gt;&lt;b&gt;F0/5&lt;br&gt;&lt;/b&gt;&lt;/span&gt;" style="text;html=1;align=center;verticalAlign=middle;resizable=0;points=[];autosize=1;strokeColor=none;fillColor=none;" parent="1" vertex="1">
          <mxGeometry x="386" y="441.5" width="40" height="26" as="geometry" />
        </mxCell>
        <mxCell id="pzWBwDgQuzdZBZj7DVHq-40" value="&lt;span style=&quot;font-size: 11px;&quot;&gt;&lt;b&gt;G0/0/1&lt;br&gt;&lt;/b&gt;&lt;/span&gt;" style="text;html=1;align=center;verticalAlign=middle;resizable=0;points=[];autosize=1;strokeColor=none;fillColor=none;" parent="1" vertex="1">
          <mxGeometry x="414" y="471" width="51" height="26" as="geometry" />
        </mxCell>
        <mxCell id="pzWBwDgQuzdZBZj7DVHq-41" value="&lt;span style=&quot;font-size: 11px;&quot;&gt;&lt;b&gt;G0/0/0&lt;br&gt;&lt;/b&gt;&lt;/span&gt;" style="text;html=1;align=center;verticalAlign=middle;resizable=0;points=[];autosize=1;strokeColor=none;fillColor=none;" parent="1" vertex="1">
          <mxGeometry x="523" y="444" width="51" height="26" as="geometry" />
        </mxCell>
      </root>
    </mxGraphModel>
  </diagram>
</mxfile>
